<?xml version="1.0" encoding="UTF-8"?>
<svg width="83px" height="103px" viewBox="0 0 83 103" version="1.1" xmlns="http://www.w3.org/2000/svg" xmlns:xlink="http://www.w3.org/1999/xlink">
    <!-- Generator: Sketch 52.2 (67145) - http://www.bohemiancoding.com/sketch -->
    <title>video-camera copy 2</title>
    <desc>Created with Sketch.</desc>
    <g id="Page-1" stroke="none" stroke-width="1" fill="none" fill-rule="evenodd">
        <g id="Desktop-HD-Copy-2" transform="translate(-1119.000000, -551.000000)">
            <g id="video-camera-copy-2" transform="translate(1155.571679, 605.656988) scale(-1, 1) rotate(-16.000000) translate(-1155.571679, -605.656988) translate(1114.071679, 559.656988)">
                <path d="M48.7714979,51.4489019 L48.7714979,54.7822353 C48.7714979,58.4642372 45.9573854,61.4489019 42.4857836,61.4489019 L33.0572121,61.4489019 C29.5856103,61.4489019 26.7714979,58.4642372 26.7714979,54.7822353 L26.7714979,51.4489019 L48.7714979,51.4489019 Z" id="Path" fill="#7FACFA"></path>
                <path d="M42.8877128,50.6219898 L42.8877128,53.9553233 C42.8877128,57.6373251 40.2823029,60.6219898 37.0689863,60.6219898 L32.7057735,60.6219898 C29.4924569,60.6219898 26.8877128,57.6373251 26.8877128,53.9553233 L26.8877128,50.6219898 L42.8877128,50.6219898 Z" id="Path" fill="#A4C2F7"></path>
                <path d="M52.7978051,45.0309766 L52.7978051,51.4306835 C52.7978051,52.3146898 52.1038864,53.0309766 51.2474859,53.0309766 L23.3481244,53.0309766 C22.4917239,53.0309766 21.7978051,52.3146898 21.7978051,51.4306835 L21.7978051,45.0309766 L52.7978051,45.0309766 Z" id="Path" fill="#7FACFA"></path>
                <path d="M48.5802752,45.5787823 L48.5802752,51.9784892 C48.5802752,52.8624954 47.8955673,53.5787823 47.0512341,53.5787823 L24.1100164,53.5787823 C23.2649833,53.5787823 22.5802752,52.8624954 22.5802752,51.9784892 L22.5802752,45.5787823 L48.5802752,45.5787823 Z" id="Path" fill="#FF7961"></path>
                <polygon id="Path" fill="#D4E1F4" points="12.3041062 32.3952415 2.3041062 33.9669783 2.3041062 22.9669783 12.3041062 24.5387151"></polygon>
                <polygon id="Path" fill="#D4E1F4" points="62.8581001 24.9097372 73.8581001 24.9097372 73.8581001 37.9097372 62.8581001 37.9097372"></polygon>
                <path d="M80.1382067,22.4138918 L80.1382067,40.4194589 C80.1382067,40.9157912 79.8432329,41.3799474 79.3488633,41.6585781 C78.8553176,41.9372088 78.2266442,41.9940302 77.6721263,41.8105586 L74.666359,40.8083096 L72.2719621,40.0162316 C71.5872604,39.7889456 71.1373839,39.2378456 71.1382078,38.6251319 L71.1382078,24.2082188 C71.1373839,23.5955051 71.5872604,23.044405 72.2719621,22.8171192 L74.666359,22.0250412 L77.6721263,21.0227922 C78.2266442,20.8393204 78.8553176,20.8961419 79.3488633,21.1747727 C79.8432329,21.4534034 80.1382067,21.9175596 80.1382067,22.4138918 Z" id="Path" fill="#FF9100"></path>
                <path d="M73.9591694,22.5821811 L73.9591694,40.7955062 C73.9614579,40.9291578 73.9477264,41.0628094 73.9193482,41.1888437 L72.5892305,40.3876262 C72.2088701,40.1577177 71.958958,39.6002588 71.9594157,38.9804753 L71.9594157,24.397212 C71.958958,23.7774285 72.2088701,23.2199695 72.5892305,22.9900611 L73.9193482,22.1888437 C73.9477264,22.3148779 73.9614579,22.4485295 73.9591694,22.5821811 Z" id="Path" fill="#A4C2F7"></path>
                <polygon id="Path" fill="#D1D4D1" points="50.3368359 15.8754596 59.1852469 7.04187581 63.3368359 11.1934648 54.503252 20.0418758 50.3368359 20.0418758"></polygon>
                <path d="M81.8049068,6.48025737 C81.8049068,9.24214051 79.7455195,11.4806389 77.204626,11.4806389 L63.4044856,11.4806389 C60.8642939,11.4806389 58.8049068,9.24214051 58.8049068,6.48025737 C58.8049068,3.71913752 60.8642939,1.48063892 63.4044856,1.48063892 L77.204626,1.48063892 C78.4245357,1.48063892 79.5946101,2.00707527 80.4572506,2.94474211 C81.3198909,3.88240895 81.8049068,5.15424847 81.8049068,6.48025737 Z" id="Path" fill="#7FACFA"></path>
                <path d="M77.6067461,6.89024435 C77.6067461,9.6521275 75.4801726,11.8906259 72.8571085,11.8906259 L63.3563837,11.8906259 C60.7333196,11.8906259 58.6067461,9.6521275 58.6067461,6.89024435 C58.6067461,4.1291245 60.7333196,1.8906259 63.3563837,1.8906259 L72.8571085,1.8906259 C74.116817,1.8906259 75.3250645,2.41706225 76.215848,3.35472909 C77.1066315,4.29239594 77.6067461,5.56423545 77.6067461,6.89024435 Z" id="Path" fill="#FF9100"></path>
                <path d="M58.9802871,20.5302567 L16.4706742,20.5302567 C14.1896336,20.4723693 12.2910554,22.2352403 12.2251373,24.4706334 L12.2251373,41.5864351 C12.2910554,43.8225015 14.1896336,45.5853725 16.4706742,45.5274851 L58.9802871,45.5274851 C61.2613277,45.5853725 63.1599059,43.8225015 63.2251373,41.5864351 L63.2251373,24.4706334 C63.1599059,22.2352403 61.2613277,20.4723693 58.9802871,20.5302567 Z" id="Path" fill="#FF9100"></path>
                <path d="M55.0121574,19.978982 L16.5937644,19.978982 C14.2882166,19.9210945 12.3692403,21.6839656 12.302614,23.9193587 L12.302614,41.0351604 C12.3692403,43.2712267 14.2882166,45.0340978 16.5937644,44.9762104 L55.0121574,44.9762104 C57.3177051,45.0340978 59.2366816,43.2712267 59.302614,41.0351604 L59.302614,23.9193587 C59.2366816,21.6839656 57.3177051,19.9210945 55.0121574,19.978982 Z" id="Path" fill="#FFC246"></path>
                <path d="M62.5325749,32.5720784 L62.5325749,41.6717151 C62.4707766,43.8734 60.574945,45.6149129 58.2877247,45.571276 L15.7781117,45.571276 C13.4902048,45.6149129 11.5950598,43.8734 11.5325749,41.6717151 L11.5325749,32.5720784 L62.5325749,32.5720784 Z" id="Path" fill="#FF9100"></path>
                <path d="M58.3344142,32.9820654 L58.3344142,42.0817021 C58.2712579,44.283387 56.3557517,46.0248999 54.0439577,45.981263 L15.6255646,45.981263 C13.3130767,46.0248999 11.3975704,44.283387 11.3344142,42.0817021 L11.3344142,32.9820654 L58.3344142,32.9820654 Z" id="Path" fill="#FF9100"></path>
                <path d="M32.8062119,26.7278642 L32.8062119,31.0607569 C32.8062119,33.4543279 30.6797195,35.3943106 28.0560308,35.3943106 L18.556393,35.3943106 C15.933429,35.3943106 13.8062119,33.4543279 13.8062119,31.0607569 L13.8062119,26.7278642 C13.8062119,24.3342933 15.933429,22.3943106 18.556393,22.3943106 L28.0560308,22.3943106 C30.6797195,22.3943106 32.8062119,24.3342933 32.8062119,26.7278642 Z" id="Path" fill="#A4C2F7"></path>
                <path d="M19.1492815,25.5127601 L28.1487666,25.5127601 C28.9775129,25.5127601 29.6490241,26.2290469 29.6490241,27.113053 L29.6490241,31.9124672 C29.6490241,32.7964733 28.9775129,33.5127601 28.1487666,33.5127601 L19.1492815,33.5127601 C18.3205351,33.5127601 17.6490241,32.7964733 17.6490241,31.9124672 L17.6490241,27.113053 C17.6490241,26.2290469 18.3205351,25.5127601 19.1492815,25.5127601 Z" id="Path" fill="#E3E7F2"></path>
                <path d="M21.2070262,37.8887069 C21.2070262,38.4407782 20.7593265,38.888478 20.207255,38.888478 C19.6547258,38.888478 19.2070262,38.4407782 19.2070262,37.8887069 C19.2070262,37.3361777 19.6547258,36.888478 20.207255,36.888478 C20.7593265,36.888478 21.2070262,37.3361777 21.2070262,37.8887069 Z" id="Path" fill="#428DFF"></path>
                <path d="M28.2114954,38.8569067 C28.2114954,39.408978 27.7637957,39.8566778 27.2117243,39.8566778 C26.6591951,39.8566778 26.2114954,39.408978 26.2114954,38.8569067 C26.2114954,38.3043775 26.6591951,37.8566778 27.2117243,37.8566778 C27.7637957,37.8566778 28.2114954,38.3043775 28.2114954,38.8569067 Z" id="Path" fill="#428DFF"></path>
                <g id="Group" transform="translate(1.488367, 6.771263)" fill="#FFFFFF">
                    <polygon id="Path" points="0.0974208434 26.2321875 4.72420934 25.4636719 4.72420934 16.2478125 0.0974208434 15.48"></polygon>
                    <path d="M9.35029175,34.4032031 C9.41806283,36.7389844 11.3700112,38.5804688 13.7151732,38.52 C11.3629518,38.5664062 9.41453313,36.714375 9.35029175,34.3729688 L9.35029175,34.4032031 Z" id="Path"></path>
                    <path d="M20.1456607,44.6639062 C20.1456607,45.5125781 20.8360787,46.2002344 21.6881588,46.2002344 L24.7724492,46.2002344 L24.7724492,47.7358594 C24.7724492,51.1291406 27.5341209,53.8797656 30.9410297,53.8797656 L35.5671123,53.8797656 C32.1602033,53.8797656 29.3985316,51.1291406 29.3985316,47.7358594 L29.3985316,46.2002344 L26.3142414,46.2002344 C25.462867,46.2002344 24.7724492,45.5125781 24.7724492,44.6639062 L24.7724492,38.52 L20.1456607,38.52 L20.1456607,44.6639062 Z" id="Path"></path>
                    <path d="M9.37994169,16.2478125 L13.9770802,17.0163281 L13.9770802,16.5241406 C14.0441454,14.1890625 15.9960938,12.3475781 18.3412556,12.4080469 L13.7151732,12.4080469 C11.482963,12.3595312 9.59172633,14.034375 9.37994169,16.2478125 Z" id="Path"></path>
                    <polygon id="Path" points="44.8206889 3.1921875 21.9359469 3.1921875 21.9359469 0.12023442 44.8206889 0.12023442"></polygon>
                </g>
                <path d="M35.2291301,10.447358 L35.349065,10.2976993 C35.3870596,10.2418632 35.4172723,10.1814505 35.4392451,10.1173764 C35.4680845,10.0610828 35.4882261,10.0002123 35.4992125,9.93751125 C35.5101989,9.87160646 35.5170655,9.80478638 35.5193544,9.73750854 C35.5152344,9.47297396 35.4117791,9.21942362 35.2291301,9.02765895 C35.1334568,8.93749756 35.0217617,8.8661007 34.8990801,8.81758739 C34.5264577,8.66701327 34.0993612,8.74893662 33.809137,9.02765895 C33.7189568,9.12331241 33.6475451,9.23544206 33.5994796,9.35764057 C33.5482097,9.47800838 33.5207437,9.60707199 33.5193704,9.73750854 C33.5170816,10.1439214 33.7606136,10.5109745 34.1359825,10.666583 C34.5108937,10.8226493 34.9430257,10.7356915 35.2291301,10.447358 Z" id="Path" fill="#428DFF"></path>
                <path d="M76.8285665,12.3028743 C80.1832511,12.3028743 82.9025892,9.58693882 82.9025892,6.2364519 C82.9025892,2.88596516 80.1832511,0.170029712 76.8285665,0.170029712 L63.1616682,0.170029712 C59.9696435,0.179749317 57.3309402,2.65894291 57.1272679,5.8407252 L50.9802569,11.9710193 C50.806475,9.60151819 48.8371793,7.76451286 46.4584535,7.75340474 L40.3837359,7.75340474 C39.5454123,7.75340474 38.8655779,8.43238851 38.8655779,9.26966318 C38.8655779,10.1076319 39.5454123,10.7866158 40.3837359,10.7866158 L46.4584535,10.7866158 C47.2967772,10.7866158 47.9766116,11.4655998 47.9766116,12.3028743 L47.9766116,18.3692966 L28.2356908,18.3692966 L28.2356908,10.7866158 C29.0747093,10.7866158 29.754544,10.1076319 29.754544,9.26966318 C29.754544,8.43238851 29.0747093,7.75340474 28.2356908,7.75340474 L23.924511,7.75340474 C22.2902666,7.75479316 20.7811453,8.62955765 19.9692366,10.0465372 L15.2069193,18.3692966 L14.5687925,18.3692966 C12.1650421,18.3797104 10.182539,20.2542057 10.040733,22.6507827 L3.93960048,21.6350841 L3.93960048,21.4025077 C3.93960048,20.5652331 3.25976587,19.8862493 2.42074714,19.8862493 C1.58242368,19.8862493 0.902589152,20.5652331 0.902589152,21.4025077 L0.902589152,35.052305 C0.902589152,35.8902738 1.58242368,36.5692576 2.42074714,36.5692576 C3.25976587,36.5692576 3.93960048,35.8902738 3.93960048,35.052305 L3.93960048,34.820423 L10.013623,33.8088897 L10.013623,42.63568 C10.013623,45.1481978 12.0531266,47.1858437 14.5687925,47.1858437 L20.64351,47.1858437 L20.64351,51.7353133 C20.64351,53.4105568 22.0031791,54.7685245 23.6805213,54.7685245 L25.1986794,54.7685245 C25.2035453,58.9208788 28.5505834,62.2970532 32.7081399,62.3428741 L23.7576805,89.171762 C23.492837,89.9673812 23.9238159,90.8275663 24.7204318,91.0920784 C25.5170478,91.3565905 26.3776153,90.9261508 26.643154,90.1305316 L28.8237684,83.5843774 L35.8285666,83.5843774 L35.8285666,89.6507998 C35.8285666,90.4887687 36.5084011,91.1677524 37.3467247,91.1677524 C38.1857432,91.1677524 38.8655779,90.4887687 38.8655779,89.6507998 L38.8655779,83.5843774 L45.8703759,83.5843774 L48.0544659,90.1305316 C48.2254673,90.6449766 48.6592267,91.0295951 49.1909991,91.1385937 C49.7227714,91.2475921 50.2733123,91.0650023 50.6333883,90.6595559 C50.9941595,90.2534153 51.1109408,89.6869012 50.9392443,89.171762 L41.98948,62.3428741 C46.1449512,62.2956646 49.490599,58.9194903 49.4954649,54.7685245 L51.013623,54.7685245 C52.6909652,54.7685245 54.0506343,53.4105568 54.0506343,51.7353133 L54.0506343,47.1858437 L60.1246569,47.1858437 C62.6410177,47.1858437 64.6805213,45.1481978 64.6805213,42.63568 L64.6805213,41.1187273 L69.4317167,41.1187273 C69.7181091,41.9337856 70.3423334,42.5863876 71.1452055,42.9085231 L75.7003748,44.7288665 C76.6360163,45.1023769 77.6967805,44.9885187 78.5316285,44.4240874 C79.3657813,43.8596559 79.8655777,42.918937 79.8655777,41.9122635 L79.8655777,23.6428766 C79.8655777,22.6362033 79.3657813,21.6954843 78.5316285,21.131053 C77.6967805,20.5666217 76.6360163,20.4527634 75.7003748,20.8262739 L71.1452055,22.6466172 C70.3423334,22.9687527 69.7181091,23.6213548 69.4317167,24.436413 L64.6805213,24.436413 L64.6805213,22.9194604 C64.6805213,20.4069424 62.6410177,18.3692966 60.1246569,18.3692966 L57.4539776,18.3692966 L63.5189635,12.3028743 L76.8285665,12.3028743 Z M63.1616682,3.20324081 L76.8285665,3.20324081 C78.5059087,3.20324081 79.8655777,4.56120853 79.8655777,6.2364519 C79.8655777,7.91169545 78.5059087,9.26966318 76.8285665,9.26966318 L63.1616682,9.26966318 C61.4843258,9.26966318 60.1246569,7.91169545 60.1246569,6.2364519 C60.1246569,4.56120853 61.4843258,3.20324081 63.1616682,3.20324081 Z M22.6051594,11.5447451 C22.8769543,11.0740384 23.3809215,10.784533 23.924511,10.7866158 L25.1986794,10.7866047 L25.1986794,18.3692966 L18.7041049,18.3692966 L22.6051594,11.5447451 Z M3.93960048,31.7448621 L3.93960048,24.7106448 L10.013623,25.7207896 L10.013623,30.7347173 L3.93960048,31.7448621 Z M29.8344836,80.5511663 L35.8285666,62.5837815 L35.8285666,80.5511663 L29.8344836,80.5511663 Z M38.8655779,80.5511663 L38.8655779,62.5837815 L44.8589656,80.5511663 L38.8655779,80.5511663 Z M41.9025891,59.3186883 L32.7915552,59.3186883 C30.2751943,59.3186883 28.2356908,57.2817368 28.2356908,54.7685245 L46.4584535,54.7685245 C46.4584535,57.2817368 44.4182549,59.3186883 41.9025891,59.3186883 Z M51.013623,51.7353133 L23.6805213,51.7353133 L23.6805213,47.1858437 L51.013623,47.1858437 L51.013623,51.7353133 Z M72.2733972,25.4625258 L76.8285665,23.6428766 L76.8285665,41.9136521 L72.2733972,40.094003 L72.2733972,25.4625258 Z M69.2363857,27.4696241 L69.2363857,38.085516 L64.6805213,38.085516 L64.6805213,27.4696241 L69.2363857,27.4696241 Z M61.6435101,22.9194604 L61.6435101,42.63568 C61.6435101,43.4729545 60.9636755,44.1519384 60.1246569,44.1519384 L14.5687925,44.1519384 C13.7304688,44.1519384 13.0506344,43.4729545 13.0506344,42.63568 L13.0506344,22.9194604 C13.0506344,22.0821857 13.7304688,21.4025077 14.5687925,21.4025077 L60.1246569,21.4025077 C60.9636755,21.4025077 61.6435101,22.0821857 61.6435101,22.9194604 Z M51.013623,18.3692966 L51.013623,16.221958 L57.9516888,9.30437596 C58.4730344,10.1846945 59.208479,10.9192191 60.0899005,11.4399121 L53.1636518,18.3692966 L51.013623,18.3692966 Z" id="Shape" fill="#F44336" fill-rule="nonzero"></path>
                <path d="M27.7112054,24.4933909 L19.3112054,24.4933909 C17.7647646,24.4933909 16.5112054,25.9004931 16.5112054,27.6363508 L16.5112054,32.3504311 C16.5112054,34.0862887 17.7647646,35.4933909 19.3112054,35.4933909 L27.7112054,35.4933909 C29.2576462,35.4933909 30.5112054,34.0862887 30.5112054,32.3504311 L30.5112054,27.6363508 C30.5112054,25.9004931 29.2576462,24.4933909 27.7112054,24.4933909 Z M19.3112054,32.3504311 L19.3112054,27.6363508 L27.7112054,27.6363508 L27.7112054,32.3504311 L19.3112054,32.3504311 Z" id="Shape" fill="#428DFF" fill-rule="nonzero"></path>
            </g>
        </g>
    </g>
</svg>