<svg height="512pt" viewBox="-26 0 512 512.01236" width="512pt" xmlns="http://www.w3.org/2000/svg"><path d="m264.539062 290.132812v17.066407c0 18.851562-15.28125 34.132812-34.132812 34.132812h-51.199219c-18.851562 0-34.132812-15.28125-34.132812-34.132812v-17.066407zm0 0" fill="#7facfa"/><path d="m238.941406 290.132812v17.066407c0 18.851562-15.285156 34.132812-34.136718 34.132812h-25.597657c-18.851562 0-34.132812-15.28125-34.132812-34.132812v-17.066407zm0 0" fill="#a4c2f7"/><path d="m290.140625 256v34.132812c0 4.714844-3.820313 8.535157-8.535156 8.535157h-153.597657c-4.714843 0-8.535156-3.820313-8.535156-8.535157v-34.132812zm0 0" fill="#7facfa"/><path d="m264.539062 256v34.132812c0 4.714844-3.820312 8.535157-8.53125 8.535157h-128c-4.714843 0-8.535156-3.820313-8.535156-8.535157v-34.132812zm0 0" fill="#a4c2f7"/><path d="m59.738281 179.199219-51.199219 8.535156v-59.734375l51.199219 8.535156zm0 0" fill="#d4e1f4"/><path d="m349.871094 145.066406h59.734375v76.800782h-59.734375zm0 0" fill="#d4e1f4"/><path d="m435.207031 132.097656v102.738282c0 2.832031-1.398437 5.480468-3.742187 7.070312-2.339844 1.589844-5.320313 1.914062-7.949219.867188l-14.25-5.71875-11.351563-4.519532c-3.246093-1.296875-5.378906-4.441406-5.375-7.9375v-82.261718c-.003906-3.496094 2.128907-6.640626 5.375-7.9375l11.351563-4.519532 14.25-5.71875c2.628906-1.046875 5.609375-.722656 7.949219.867188 2.34375 1.589844 3.742187 4.238281 3.742187 7.070312zm0 0" fill="#7facfa"/><path d="m409.605469 132.097656v102.738282c.019531.753906-.097657 1.507812-.339844 2.21875l-11.351563-4.519532c-3.246093-1.296875-5.378906-4.441406-5.375-7.9375v-82.261718c-.003906-3.496094 2.128907-6.640626 5.375-7.9375l11.351563-4.519532c.242187.710938.359375 1.464844.339844 2.21875zm0 0" fill="#a4c2f7"/><path d="m273.074219 86.785156 51.285156-51.199218 24.0625 24.0625-51.199219 51.285156h-24.148437zm0 0" fill="#d1d4d1"/><path d="m452.273438 34.132812c0 14.140626-11.460938 25.601563-25.601563 25.601563h-76.800781c-14.136719 0-25.597656-11.460937-25.597656-25.601563 0-14.136718 11.460937-25.597656 25.597656-25.597656h76.800781c6.789063 0 13.300781 2.695313 18.101563 7.496094 4.800781 4.800781 7.5 11.3125 7.5 18.101562zm0 0" fill="#7facfa"/><path d="m426.671875 34.132812c0 14.140626-11.460937 25.601563-25.597656 25.601563h-51.203125c-14.136719 0-25.597656-11.460937-25.597656-25.601563 0-14.136718 11.460937-25.597656 25.597656-25.597656h51.203125c6.789062 0 13.300781 2.695313 18.101562 7.496094s7.496094 11.3125 7.496094 18.101562zm0 0" fill="#a4c2f7"/><path d="m325.722656 110.933594h-241.832031c-12.976563-.335938-23.777344 9.894531-24.152344 22.867187v99.328125c.375 12.976563 11.175781 23.207032 24.152344 22.871094h241.832031c12.976563.335938 23.777344-9.894531 24.148438-22.871094v-99.328125c-.371094-12.972656-11.171875-23.203125-24.148438-22.867187zm0 0" fill="#a4c2f7"/><path d="m300.125 110.933594h-216.234375c-12.976563-.335938-23.777344 9.894531-24.152344 22.867187v99.328125c.375 12.976563 11.175781 23.207032 24.152344 22.871094h216.234375c12.976562.335938 23.777344-9.894531 24.148438-22.871094v-99.328125c-.371094-12.972656-11.171876-23.203125-24.148438-22.867187zm0 0" fill="#d4e1f4"/><path d="m349.871094 179.199219v53.761719c-.351563 13.007812-11.136719 23.296874-24.148438 23.039062h-241.832031c-13.015625.257812-23.796875-10.03125-24.152344-23.039062v-53.761719zm0 0" fill="#7facfa"/><path d="m324.273438 179.199219v53.761719c-.355469 13.007812-11.136719 23.296874-24.148438 23.039062h-216.234375c-13.015625.257812-23.796875-10.03125-24.152344-23.039062v-53.761719zm0 0" fill="#a4c2f7"/><path d="m179.207031 153.601562v25.597657c0 14.140625-11.460937 25.601562-25.601562 25.601562h-51.199219c-14.136719 0-25.601562-11.460937-25.601562-25.601562v-25.597657c0-14.140624 11.464843-25.601562 25.601562-25.601562h51.199219c14.140625 0 25.601562 11.460938 25.601562 25.601562zm0 0" fill="#a4c2f7"/><path d="m102.40625 145.066406h51.199219c4.714843 0 8.535156 3.820313 8.535156 8.535156v25.597657c0 4.714843-3.820313 8.535156-8.535156 8.535156h-51.199219c-4.714844 0-8.535156-3.820313-8.535156-8.535156v-25.597657c0-4.714843 3.820312-8.535156 8.535156-8.535156zm0 0" fill="#e3e7f2"/><path d="m119.472656 221.867188c0 4.710937-3.820312 8.53125-8.53125 8.53125-4.714844 0-8.535156-3.820313-8.535156-8.53125 0-4.714844 3.820312-8.535157 8.535156-8.535157 4.710938 0 8.53125 3.820313 8.53125 8.535157zm0 0" fill="#428dff"/><path d="m153.605469 221.867188c0 4.710937-3.820313 8.53125-8.53125 8.53125-4.714844 0-8.535157-3.820313-8.535157-8.53125 0-4.714844 3.820313-8.535157 8.535157-8.535157 4.710937 0 8.53125 3.820313 8.53125 8.535157zm0 0" fill="#428dff"/><g fill="#fff"><path d="m8.539062 187.734375 25.601563-4.269531v-51.199219l-25.601563-4.265625zm0 0"/><path d="m59.738281 233.128906c.375 12.976563 11.175781 23.207032 24.152344 22.871094-13.015625.257812-23.796875-10.03125-24.152344-23.039062zm0 0"/><path d="m119.472656 290.132812c0 4.714844 3.820313 8.535157 8.535156 8.535157h17.066407v8.53125c0 18.851562 15.28125 34.132812 34.132812 34.132812h25.597657c-18.851563 0-34.132813-15.28125-34.132813-34.132812v-8.53125h-17.066406c-4.710938 0-8.53125-3.820313-8.53125-8.535157v-34.132812h-25.601563zm0 0"/><path d="m59.902344 132.265625 25.4375 4.269531v-2.734375c.371094-12.972656 11.171875-23.203125 24.148437-22.867187h-25.597656c-12.351563-.269532-22.816406 9.035156-23.988281 21.332031zm0 0"/><path d="m256.007812 59.734375h-126.628906v-17.066406h126.628906zm0 0"/></g><path d="m193.796875 57.257812 1.023437-1.277343c.324219-.476563.582032-.992188.769532-1.539063.246094-.480468.417968-1 .511718-1.535156.09375-.5625.152344-1.132812.171876-1.707031-.035157-2.257813-.917969-4.421875-2.476563-6.058594-.816406-.769531-1.769531-1.378906-2.816406-1.792969-3.179688-1.285156-6.824219-.585937-9.300781 1.792969-.769532.816406-1.378907 1.773437-1.789063 2.816406-.4375 1.027344-.671875 2.128907-.683594 3.242188-.019531 3.46875 2.058594 6.601562 5.261719 7.929687 3.199219 1.332032 6.886719.589844 9.328125-1.871094zm0 0" fill="#428dff"/><path d="m426.671875 68.265625c18.851563 0 34.132813-15.28125 34.132813-34.132813 0-18.851562-15.28125-34.132812-34.132813-34.132812h-76.800781c-17.9375.0546875-32.765625 14.003906-33.910156 31.90625l-34.542969 34.492188c-.976563-13.332032-12.042969-23.667969-25.410157-23.730469h-34.136718c-4.710938 0-8.53125 3.820312-8.53125 8.53125 0 4.714843 3.820312 8.535156 8.53125 8.535156h34.136718c4.710938 0 8.53125 3.820313 8.53125 8.53125v34.132813h-110.933593v-42.664063c4.714843 0 8.535156-3.820313 8.535156-8.535156 0-4.710938-3.820313-8.53125-8.535156-8.53125h-24.226563c-9.183594.007812-17.664062 4.929687-22.226562 12.902343l-26.761719 46.828126h-3.585937c-13.507813.058593-24.648438 10.605468-25.445313 24.089843l-34.285156-5.714843v-1.308594c0-4.710938-3.820313-8.53125-8.535157-8.53125-4.710937 0-8.5312495 3.820312-8.5312495 8.53125v76.800781c0 4.714844 3.8203125 8.535156 8.5312495 8.535156 4.714844 0 8.535157-3.820312 8.535157-8.535156v-1.304687l34.132812-5.691407v49.664063c0 14.136718 11.460938 25.601562 25.597657 25.601562h34.136718v25.597656c0 9.425782 7.640625 17.066407 17.066406 17.066407h8.53125c.027344 23.363281 18.835938 42.359375 42.199219 42.617187l-50.296875 150.953125c-1.488281 4.476563.933594 9.316407 5.410156 10.804688 4.476563 1.488281 9.3125-.933594 10.804688-5.410157l12.253906-36.832031h39.363282v34.132813c0 4.714844 3.820312 8.535156 8.53125 8.535156 4.714843 0 8.535156-3.820312 8.535156-8.535156v-34.132813h39.363281l12.273437 36.832031c.960938 2.894532 3.398438 5.058594 6.386719 5.671876 2.988281.613281 6.082031-.414063 8.105469-2.695313 2.027344-2.285156 2.683594-5.472656 1.71875-8.371094l-50.292969-150.953125c23.351563-.265625 42.152344-19.261718 42.179688-42.617187h8.53125c9.425781 0 17.066406-7.640625 17.066406-17.066407v-25.597656h34.132813c14.140624 0 25.601562-11.464844 25.601562-25.601562v-8.535156h26.699219c1.609375 4.585937 5.117187 8.257812 9.628906 10.070312l25.597656 10.242188c5.257813 2.101562 11.21875 1.460937 15.910157-1.714844 4.6875-3.175782 7.496093-8.46875 7.496093-14.132813v-102.792969c0-5.664062-2.808593-10.957031-7.496093-14.132812-4.691407-3.175781-10.652344-3.816406-15.910157-1.714844l-25.597656 10.242188c-4.511719 1.8125-8.019531 5.484375-9.628906 10.070312h-26.699219v-8.535156c0-14.136719-11.460938-25.601562-25.601562-25.601562h-15.007813l34.082031-34.132813zm-76.800781-51.199219h76.800781c9.425781 0 17.066406 7.640625 17.066406 17.066406 0 9.425782-7.640625 17.066407-17.066406 17.066407h-76.800781c-9.425782 0-17.066406-7.640625-17.066406-17.066407 0-9.425781 7.640624-17.066406 17.066406-17.066406zm-227.90625 46.933594c1.527344-2.648438 4.359375-4.277344 7.414062-4.265625h7.160156v42.664063h-36.496093zm-104.890625 113.65625v-39.578125l34.132812 5.683594v28.210937zm145.515625 274.609375 33.683594-101.09375v101.09375zm50.75 0v-101.09375l33.679687 101.09375zm17.066406-119.464844h-51.199219c-14.140625 0-25.601562-11.460937-25.601562-25.601562h102.402343c0 14.140625-11.464843 25.601562-25.601562 25.601562zm51.199219-42.667969h-153.597657v-25.597656h153.597657zm119.46875-147.824218 25.597656-10.238282v102.800782l-25.597656-10.238282zm-17.066407 11.292968v59.730469h-25.601562v-59.730469zm-42.667968-25.601562v110.933594c0 4.710937-3.820313 8.53125-8.535156 8.53125h-256c-4.710938 0-8.53125-3.820313-8.53125-8.53125v-110.933594c0-4.710938 3.820312-8.535156 8.53125-8.535156h256c4.714843 0 8.535156 3.824218 8.535156 8.535156zm-59.734375-25.601562v-12.082032l38.988281-38.921875c2.929688 4.953125 7.0625 9.085938 12.015625 12.015625l-38.921875 38.988282zm0 0" fill="#428dff"/><path d="m153.605469 136.535156h-51.199219c-9.425781 0-17.066406 7.640625-17.066406 17.066406v25.597657c0 9.425781 7.640625 17.066406 17.066406 17.066406h51.199219c9.425781 0 17.066406-7.640625 17.066406-17.066406v-25.597657c0-9.425781-7.640625-17.066406-17.066406-17.066406zm-51.199219 42.664063v-25.597657h51.199219v25.597657zm0 0" fill="#428dff"/></svg>