<svg xmlns="http://www.w3.org/2000/svg" xmlns:xlink="http://www.w3.org/1999/xlink" viewBox="0 0 189.54 108.5"><defs><style>.cls-1{fill:url(#Blueberry);}.cls-2{fill:url(#linear-gradient);}</style><linearGradient id="Blueberry" x1="1.89" y1="54.25" x2="187.65" y2="54.25" gradientUnits="userSpaceOnUse"><stop offset="0.04" stop-color="#7c9cbd"/><stop offset="0.06" stop-color="#7498ba"/><stop offset="0.26" stop-color="#21719f"/><stop offset="0.35" stop-color="#006194"/><stop offset="0.45" stop-color="#16639a"/><stop offset="0.58" stop-color="#3666a2"/><stop offset="0.7" stop-color="#4c75a8"/><stop offset="0.78" stop-color="#5b7fad"/><stop offset="0.86" stop-color="#3f6696"/><stop offset="0.97" stop-color="#1e497b"/></linearGradient><linearGradient id="linear-gradient" y1="55.18" x2="189.54" y2="55.18" gradientUnits="userSpaceOnUse"><stop offset="0" stop-color="#cf232a"/><stop offset="0.5" stop-color="#ec1c24"/><stop offset="1" stop-color="#f37e5f"/></linearGradient></defs><title>logo block</title><g id="Layer_2" data-name="Layer 2"><g id="Layer_1-2" data-name="Layer 1"><path class="cls-1" d="M94,108.5h0a1.56,1.56,0,0,1-1.49-1.59L87.4,1.66c0-.17-.07-.25-.11-.25s-.09.07-.1.24L79.4,96.95a1.56,1.56,0,0,1-1.51,1.53h0a1.56,1.56,0,0,1-1.51-1.53L70.13,17.83c0-.16-.07-.24-.11-.24a.3.3,0,0,0-.1.23l-8.27,77.9a1.54,1.54,0,0,1-1.5,1.48h0a1.56,1.56,0,0,1-1.49-1.53L54.06,41.4c0-.17-.08-.24-.11-.24a.37.37,0,0,0-.1.2L47.31,83.59A1.55,1.55,0,0,1,45.82,85h0a1.55,1.55,0,0,1-1.48-1.44l-4-30.23c0-.16-.08-.21-.1-.21h0s-.07,0-.1.2L37.5,68.84a1.5,1.5,0,0,1-3-.08L33.17,58.32c0-.15-.08-.21-.1-.21h0s-.08.06-.1.21l-1.1,8.1a1.54,1.54,0,0,1-1.5,1.43h0a1.55,1.55,0,0,1-1.48-1.48l-1-9.06c0-.17-.09-.22-.11-.22h0s0,0-.08.14l-1.83,5.94a1.55,1.55,0,0,1-1.44,1.14A1.52,1.52,0,0,1,23,63.14L20.8,55.56c0-.11-.08-.15-.09-.15a.28.28,0,0,0-.06.09l-3.11,6.69a1.49,1.49,0,0,1-1.34.91H2.59a.7.7,0,0,1,0-1.41h13.6a.24.24,0,0,0,.07-.09l3.11-6.69a1.49,1.49,0,0,1,1.45-.9,1.54,1.54,0,0,1,1.33,1.16l2.19,7.58c0,.11.08.15.09.15s.05,0,.09-.14l1.83-5.94a1.5,1.5,0,0,1,1.56-1.13,1.57,1.57,0,0,1,1.37,1.47l1,9.06c0,.16.08.23.1.23h0s.08-.06.1-.21l1.1-8.1a1.55,1.55,0,0,1,1.5-1.43h0a1.55,1.55,0,0,1,1.49,1.44l1.35,10.45c0,.15.08.21.1.21a.29.29,0,0,0,.1-.2l2.65-15.54a1.5,1.5,0,0,1,3,.07l4,30.23c0,.15.08.21.1.21h0s.08-.06.1-.21l6.55-42.23A1.54,1.54,0,0,1,54,39.76a1.56,1.56,0,0,1,1.46,1.52L60,95.56c0,.16.07.24.11.24h0s.09-.07.1-.22l8.27-77.9A1.5,1.5,0,0,1,70,16.18a1.56,1.56,0,0,1,1.49,1.53l6.26,79.11c0,.16.07.24.1.24h0S78,97,78,96.83l7.79-95.3A1.54,1.54,0,0,1,87.31,0,1.56,1.56,0,0,1,88.8,1.59l5.12,105.25c0,.17.07.25.11.25h0s.09-.08.1-.24l7.13-88.56a1.56,1.56,0,0,1,1.5-1.53h0a1.56,1.56,0,0,1,1.51,1.52L110.41,88c0,.17.08.23.11.24h0s.07-.06.1-.2l7.67-43.45a1.49,1.49,0,0,1,3,.07l5.13,36.59c0,.16.08.21.1.21h0s.07,0,.1-.2l6.6-39a1.52,1.52,0,0,1,1.53-1.37,1.55,1.55,0,0,1,1.46,1.48l4.92,46.08c0,.16.08.23.11.23h0s.09-.07.1-.22l6.42-57.69a1.52,1.52,0,0,1,1.53-1.48,1.57,1.57,0,0,1,1.48,1.55l4.69,63.9c0,.17.07.24.11.24h0s.1-.08.11-.25l3.25-71.64a1.55,1.55,0,0,1,1.51-1.6h0a1.56,1.56,0,0,1,1.51,1.6L165,92.42c0,.18.07.25.11.26h0s.09-.07.1-.24l3.44-41.75a1.56,1.56,0,0,1,1.49-1.53h0a1.54,1.54,0,0,1,1.5,1.47L173,61.94c0,.15.08.22.11.22h0s.07-.05.1-.19l.29-1.49a1.53,1.53,0,0,1,1.48-1.32h0a1.53,1.53,0,0,1,1.47,1.35l.37,2c0,.14.08.19.1.19a.24.24,0,0,0,.07-.12l.18-.47a1.51,1.51,0,0,1,1.39-1h8.39a.7.7,0,1,1,0,1.41h-8.39a.26.26,0,0,0-.08.12l-.18.47a1.48,1.48,0,0,1-1.52,1,1.57,1.57,0,0,1-1.36-1.34l-.37-2c0-.14-.08-.19-.1-.19h0s-.07,0-.1.19l-.29,1.49A1.53,1.53,0,0,1,173,63.57a1.56,1.56,0,0,1-1.45-1.47l-1.29-11.31c0-.16-.08-.22-.1-.22h0s-.09.07-.11.24l-3.44,41.75a1.55,1.55,0,0,1-1.51,1.53h0a1.56,1.56,0,0,1-1.49-1.6l-3.09-69.37c0-.16-.06-.25-.11-.25h0s-.1.09-.11.25l-3.25,71.64a1.51,1.51,0,1,1-3,.05l-4.69-63.9c0-.16-.07-.24-.11-.24h0s-.09.06-.1.22l-6.42,57.69a1.54,1.54,0,0,1-1.5,1.48h0a1.54,1.54,0,0,1-1.5-1.48L134.8,42.48c0-.16-.08-.22-.11-.23a.3.3,0,0,0-.1.2l-6.6,39a1.5,1.5,0,0,1-3-.05l-5.13-36.59c0-.16-.08-.21-.1-.21h0s-.07,0-.1.19L112,88.27a1.5,1.5,0,0,1-3-.16l-6.13-69.7c0-.16-.07-.24-.1-.24h0s-.09.08-.11.24L95.54,107A1.55,1.55,0,0,1,94,108.5Z" transform="translate(0 0)"/><path class="cls-2" d="M188.61,58.38H172.09a.3.3,0,0,1-.22-.1l-3.63-4a2.12,2.12,0,0,0-1.53-.71h-.09a2.13,2.13,0,0,0-1.6.75l-3,3.49a.28.28,0,0,1-.24.1.29.29,0,0,1-.23-.13l-3.53-5.52a2.14,2.14,0,0,0-1.81-1h-.14a2.12,2.12,0,0,0-1.79,1.25l-4.5,10a.27.27,0,0,1-.26.17h0a.27.27,0,0,1-.24-.17L144,51.25a2.14,2.14,0,0,0-1.9-1.23,2.17,2.17,0,0,0-1.92,1.12l-4.67,8.64a.29.29,0,0,1-.27.16h0a.28.28,0,0,1-.26-.18l-4.13-10a2.17,2.17,0,0,0-2-1.32h0a2.13,2.13,0,0,0-2,1.44L122.3,63.18a.26.26,0,0,1-.22.2H122a.28.28,0,0,1-.28-.21L117,47.26a2.14,2.14,0,0,0-4.1,0l-5.27,17.51a.29.29,0,0,1-.56,0L99.92,42.41a2.12,2.12,0,0,0-2.06-1.49h-.08a2.12,2.12,0,0,0-2,1.68L90.35,67.37a.27.27,0,0,1-.28.23.26.26,0,0,1-.29-.21L83,46.32a2.09,2.09,0,0,0-2-1.49h0a2.11,2.11,0,0,0-2,1.5l-5.7,18.28a.3.3,0,0,1-.28.21.29.29,0,0,1-.24-.12L63.78,52.33a2.12,2.12,0,0,0-1.7-.89H62a2.13,2.13,0,0,0-1.75,1l-5.44,8.94a.29.29,0,0,1-.26.14.25.25,0,0,1-.23-.13l-7.34-11a2.15,2.15,0,0,0-1.8-1h-.06a2.13,2.13,0,0,0-1.78,1.09l-5.57,9.87a.29.29,0,0,1-.27.15h0a.28.28,0,0,1-.25-.18l-4.9-11.23a2.11,2.11,0,0,0-2-1.28h-.13a2.12,2.12,0,0,0-1.92,1.53L23.71,65a.29.29,0,0,1-.57,0L18.92,45.81a2.14,2.14,0,0,0-4.1-.26L10.9,56.43a.3.3,0,0,1-.27.19H.92a.92.92,0,1,0,0,1.85h9.7a2.15,2.15,0,0,0,2-1.42l3.91-10.88a.28.28,0,0,1,.29-.19h0a.27.27,0,0,1,.27.23l4.23,19.22a2.14,2.14,0,0,0,4.14.14l4.58-15.62a.29.29,0,0,1,.29-.21.27.27,0,0,1,.26.18l4.9,11.23a2.13,2.13,0,0,0,1.85,1.28,2.11,2.11,0,0,0,2-1.09l5.57-9.87a.28.28,0,0,1,.22-.15.33.33,0,0,1,.28.13l7.34,11a2.07,2.07,0,0,0,1.75,1h.08a2.13,2.13,0,0,0,1.78-1l5.44-8.94a.3.3,0,0,1,.26-.14.28.28,0,0,1,.23.12l8.94,12.37A2.14,2.14,0,0,0,75,65.17l5.7-18.28a.27.27,0,0,1,.28-.21.27.27,0,0,1,.28.2L88,68a2.1,2.1,0,0,0,2,1.49h.11a2.09,2.09,0,0,0,2-1.68L97.6,43a.27.27,0,0,1,.29-.23.27.27,0,0,1,.28.2l7.11,22.36a2.14,2.14,0,0,0,4.09,0l5.27-17.51a.29.29,0,0,1,.56,0L120,63.7a2.14,2.14,0,0,0,4.07.08l4.58-13.28a.28.28,0,0,1,.25-.2.29.29,0,0,1,.3.18l4.13,10a2.14,2.14,0,0,0,3.86.2L141.84,52a.31.31,0,0,1,.27-.15.28.28,0,0,1,.26.17l5.24,11.24a2.12,2.12,0,0,0,1.94,1.24h.11a2.12,2.12,0,0,0,1.84-1.26l4.5-10a.29.29,0,0,1,.26-.17.29.29,0,0,1,.25.14L160,58.77a2.14,2.14,0,0,0,3.43.23l3-3.49a.31.31,0,0,1,.25-.11.24.24,0,0,1,.19.1l3.63,4a2.15,2.15,0,0,0,1.59.71h16.52a.92.92,0,1,0,0-1.84Z" transform="translate(0 0)"/></g></g></svg>